<svg width="96" height="96" xmlns="http://www.w3.org/2000/svg" xmlns:xlink="http://www.w3.org/1999/xlink" overflow="hidden"><defs><filter id="fx0" x="-10%" y="-10%" width="120%" height="120%" filterUnits="userSpaceOnUse" primitiveUnits="userSpaceOnUse"><feComponentTransfer color-interpolation-filters="sRGB"><feFuncR type="discrete" tableValues="0 0"/><feFuncG type="discrete" tableValues="0 0"/><feFuncB type="discrete" tableValues="0 0"/><feFuncA type="linear" slope="0.501961" intercept="0"/></feComponentTransfer><feGaussianBlur stdDeviation="0 0"/></filter><clipPath id="clip1"><rect x="15" y="3" width="17" height="41"/></clipPath></defs><g><path d="M0 0 96 0 96 96 0 96Z" fill="#FFFFFF" fill-rule="evenodd"/><rect x="15" y="25" width="66" height="46" fill="#3367D1"/><text fill="#FFFFFF" font-family="Meiryo,Meiryo_MSFontService,sans-serif" font-weight="400" font-size="37" transform="translate(16.3333 62)">abc</text><g clip-path="url(#clip1)" filter="url(#fx0)" transform="translate(60 30)"><g><g><g><g><path d="M25.4824 36.9823C25.4824 38.0409 26.3404 38.899 27.399 38.899L31.2324 38.899 31.2324 42.7323 26.4407 42.7323C25.3865 42.7323 23.5657 41.8699 23.5657 40.8157 23.5657 41.8699 21.7449 42.7323 20.6907 42.7323L15.899 42.7323 15.899 38.899 19.7324 38.899C20.7909 38.899 21.649 38.0409 21.649 36.9823L21.649 10.149C21.649 9.09048 20.7909 8.23235 19.7324 8.23235L15.899 8.23235 15.899 4.39902 20.6907 4.39902C21.7449 4.39902 23.5657 5.26152 23.5657 6.31569 23.5657 5.26152 25.3865 4.39902 26.4407 4.39902L31.2324 4.39902 31.2324 8.23235 27.399 8.23235C26.3404 8.23235 25.4824 9.09048 25.4824 10.149L25.4824 36.9823Z" stroke="#FFFFFF" stroke-width="0.901961"/></g></g></g></g></g><g><g><g><path d="M84.9167 66.4167C84.9167 67.4752 85.7748 68.3333 86.8333 68.3333L90.6667 68.3333 90.6667 72.1667 85.875 72.1667C84.8208 72.1667 83 71.3042 83 70.25 83 71.3042 81.1792 72.1667 80.125 72.1667L75.3333 72.1667 75.3333 68.3333 79.1667 68.3333C80.2252 68.3333 81.0833 67.4752 81.0833 66.4167L81.0833 39.5833C81.0833 38.5248 80.2252 37.6667 79.1667 37.6667L75.3333 37.6667 75.3333 33.8333 80.125 33.8333C81.1792 33.8333 83 34.6958 83 35.75 83 34.6958 84.8208 33.8333 85.875 33.8333L90.6667 33.8333 90.6667 37.6667 86.8333 37.6667C85.7748 37.6667 84.9167 38.5248 84.9167 39.5833L84.9167 66.4167Z" stroke="#FFFFFF" stroke-width="0.901961"/></g></g></g></g></svg>